<svg version="1.1" id="Layer_1" xmlns="http://www.w3.org/2000/svg" xmlns:xlink="http://www.w3.org/1999/xlink" x="0px" y="0px"
	 width="100%" viewBox="0 0 96 96" enable-background="new 0 0 96 96" xml:space="preserve">
<path fill="transparent" opacity="1.000000" stroke="none" 
	d="
M68.000000,97.000000 
	C45.696674,97.000000 23.393345,97.000000 1.045009,97.000000 
	C1.045009,65.073051 1.045009,33.146027 1.045009,1.109499 
	C32.883675,1.109499 64.767845,1.109499 97.000000,1.109499 
	C97.000000,23.019672 97.000000,45.041180 96.678879,67.672043 
	C95.274467,67.172020 94.191177,66.062637 92.948311,64.649292 
	C90.235886,62.233063 87.683029,60.120811 85.108551,57.972336 
	C85.086929,57.936115 85.012444,57.975739 84.985214,57.509285 
	C84.922096,47.712959 84.886200,38.383087 84.904984,28.586292 
	C84.972633,26.468163 84.998650,24.816935 84.996483,23.165745 
	C84.980484,10.974324 85.869324,13.309169 75.076996,12.527296 
	C75.160400,6.315526 71.244102,10.011718 69.126831,9.163342 
	C69.021248,10.691747 68.943481,11.817561 68.505112,12.969835 
	C67.425034,13.051760 66.705559,13.107226 65.552193,13.100266 
	C63.075768,13.080967 61.033245,13.124097 58.533974,13.105891 
	C54.381683,13.085367 50.686142,13.126179 46.527115,13.104676 
	C40.419643,13.018238 34.775658,12.994112 29.074043,12.540842 
	C29.162819,6.316039 25.251141,10.005235 23.127275,9.176867 
	C23.022627,10.708144 22.945547,11.836042 22.507359,12.984988 
	C21.426712,13.057549 20.707170,13.109062 19.560099,13.094910 
	C14.054022,12.100994 12.390019,14.368237 12.935888,19.244816 
	C13.296614,22.467400 13.103417,25.751986 13.087179,29.471764 
	C13.066058,35.955238 13.115980,41.975761 13.092949,48.454720 
	C13.068615,52.941109 13.117233,56.969055 13.093807,61.453003 
	C13.069978,65.604706 13.118193,69.300415 13.094669,73.443344 
	C13.312159,77.276627 13.601386,80.662689 14.131300,84.409332 
	C18.246187,84.791100 22.120392,84.812279 26.456892,84.905426 
	C31.941734,84.930519 36.964279,84.883644 42.449657,84.909874 
	C47.930313,84.993111 52.948132,85.003258 58.038773,85.249817 
	C58.293766,85.785271 58.555435,85.974243 58.950348,86.403778 
	C61.323769,89.206650 63.643436,91.658905 66.150345,94.393364 
	C66.891731,95.450378 67.445862,96.225189 68.000000,97.000000 
z"/>
<path fill="#108F4C" opacity="1.000000" stroke="none" 
	d="
M93.107880,64.953262 
	C94.191177,66.062637 95.274467,67.172020 96.678879,68.140701 
	C97.000000,70.370560 97.000000,72.741112 96.668121,75.638298 
	C92.315117,79.851929 88.148491,83.395218 84.319534,87.272026 
	C81.328964,90.299965 78.757629,93.741982 76.000000,97.000000 
	C73.629440,97.000000 71.258888,97.000000 68.444168,97.000000 
	C67.445862,96.225189 66.891731,95.450378 66.235329,94.053528 
	C68.806221,90.932152 71.479385,88.432808 74.494537,85.923538 
	C79.227867,81.774750 83.684532,77.700714 87.931595,73.418777 
	C88.491203,72.854568 87.980072,71.228340 88.140175,69.811417 
	C89.912964,68.003647 91.510422,66.478455 93.107880,64.953262 
z"/>
<path fill="#0A8645" opacity="1.000000" stroke="none" 
	d="
M76.454109,97.000000 
	C78.757629,93.741982 81.328964,90.299965 84.319534,87.272026 
	C88.148491,83.395218 92.315117,79.851929 96.668121,76.082458 
	C97.000000,79.030594 97.000000,82.061188 96.648376,85.453827 
	C92.864502,89.543907 89.432251,93.271957 86.000000,97.000000 
	C82.969406,97.000000 79.938812,97.000000 76.454109,97.000000 
z"/>
<path fill="#000000" opacity="1.000000" stroke="none" 
	d="
M86.482956,97.000000 
	C89.432251,93.271957 92.864502,89.543907 96.648376,85.907928 
	C97.000000,89.587212 97.000000,93.174416 97.000000,97.000000 
	C93.657448,97.000000 90.311684,97.000000 86.482956,97.000000 
z"/>
<path fill="#0B85D6" opacity="1.000000" stroke="none" 
	d="
M84.850311,29.053215 
	C84.886200,38.383087 84.922096,47.712959 84.582367,57.508835 
	C81.794807,57.685043 79.382858,57.395248 76.567413,57.054497 
	C68.595367,57.100063 63.442883,61.331211 59.008781,66.587021 
	C56.686531,60.157310 57.211979,54.966095 63.335423,51.360218 
	C64.060020,50.933529 64.386673,49.831059 65.188660,48.861755 
	C69.976822,42.159367 74.474121,35.637074 79.390564,29.080132 
	C81.489906,29.048061 83.170113,29.050638 84.850311,29.053215 
z"/>
<path fill="#1D9FE3" opacity="1.000000" stroke="none" 
	d="
M13.166408,72.996124 
	C13.118193,69.300415 13.069978,65.604706 13.414341,61.361343 
	C17.367048,56.547527 21.182314,52.465424 24.425060,47.970306 
	C28.838415,41.852486 32.814598,35.419289 37.420235,29.090351 
	C39.929611,28.995743 41.996998,28.932114 44.036709,28.930798 
	C44.009037,28.993113 43.949642,29.115864 43.932388,29.472902 
	C42.891171,31.822824 41.940174,33.857460 40.828510,35.800159 
	C38.274563,40.263321 35.642372,44.681705 33.042362,49.424488 
	C33.078495,50.136726 33.114197,50.542740 32.807259,51.034828 
	C29.641380,54.249630 26.787157,57.351086 24.002583,60.513863 
	C20.361702,64.649246 16.775902,68.833115 13.166408,72.996124 
z"/>
<path fill="#046CC0" opacity="1.000000" stroke="none" 
	d="
M44.064384,28.868484 
	C41.996998,28.932114 39.929611,28.995743 36.972534,29.055222 
	C33.380604,29.071259 30.678368,29.091446 27.736401,29.050911 
	C27.496672,28.990185 27.013851,28.882881 26.910320,28.561272 
	C20.977438,24.821550 19.000996,19.661053 19.987629,13.160575 
	C20.707170,13.109062 21.426712,13.057549 22.557304,13.416254 
	C23.009308,15.620787 22.701248,17.520794 23.202421,19.175739 
	C23.598383,20.483263 24.989046,21.489553 25.937960,22.629622 
	C26.922201,21.528185 28.429447,20.566690 28.770231,19.293083 
	C29.304569,17.296122 29.051340,15.088429 29.131668,12.969987 
	C34.775658,12.994112 40.419643,13.018238 46.515968,13.506280 
	C46.000328,18.936293 45.032356,23.902390 44.064384,28.868484 
z"/>
<path fill="#118EDD" opacity="1.000000" stroke="none" 
	d="
M41.986824,84.836777 
	C36.964279,84.883644 31.941734,84.930519 26.489164,84.548340 
	C29.161623,77.741005 32.276085,71.372383 39.432278,67.967087 
	C41.109344,67.315956 42.648441,66.918640 43.706520,65.979424 
	C47.946575,62.215729 51.649113,63.465141 54.949005,67.070663 
	C50.428429,73.116226 46.207626,78.976494 41.986824,84.836777 
z"/>
<path fill="#1695E0" opacity="1.000000" stroke="none" 
	d="
M39.073219,67.971825 
	C32.276085,71.372383 29.161623,77.741005 26.026867,84.476364 
	C22.120392,84.812279 18.246187,84.791100 14.421539,84.227196 
	C21.662239,73.744629 28.853384,63.804779 36.396645,53.925949 
	C40.256248,55.294006 41.344112,57.577435 40.142471,61.240402 
	C39.443275,63.371758 39.407501,65.720757 39.073219,67.971825 
z"/>
<path fill="#1FA3E5" opacity="1.000000" stroke="none" 
	d="
M27.976131,29.111637 
	C30.678368,29.091446 33.380604,29.071259 36.530540,29.086201 
	C32.814598,35.419289 28.838415,41.852486 24.425060,47.970306 
	C21.182314,52.465424 17.367048,56.547527 13.486385,60.905342 
	C13.117233,56.969055 13.068615,52.941109 13.413777,48.364021 
	C18.530416,41.580463 23.253275,35.346050 27.976131,29.111637 
z"/>
<path fill="#1BA15C" opacity="1.000000" stroke="none" 
	d="
M76.970917,57.105457 
	C79.382858,57.395248 81.794807,57.685043 84.609596,57.975288 
	C85.012444,57.975739 85.086929,57.936115 85.005493,58.311428 
	C82.142990,62.097309 79.340805,65.490936 76.588066,68.924217 
	C74.661003,71.327713 72.801491,73.785378 70.586136,76.060379 
	C69.050232,75.921379 67.840012,75.940857 66.629784,75.960327 
	C67.123184,77.294014 67.616585,78.627701 67.770996,80.048096 
	C64.586861,82.107590 61.741726,84.080368 58.896591,86.053154 
	C58.555435,85.974243 58.293766,85.785271 58.041508,84.847305 
	C57.683262,81.797188 57.395096,79.385986 57.443146,76.903397 
	C65.703384,71.741913 72.554092,65.607620 76.970917,57.105457 
z"/>
<path fill="#199AE1" opacity="1.000000" stroke="none" 
	d="
M36.044529,53.864929 
	C28.853384,63.804779 21.662239,73.744629 14.180854,83.866615 
	C13.601386,80.662689 13.312159,77.276627 13.094669,73.443344 
	C16.775902,68.833115 20.361702,64.649246 24.002583,60.513863 
	C26.787157,57.351086 29.641380,54.249630 33.079994,51.159081 
	C34.478416,52.086487 35.261471,52.975708 36.044529,53.864929 
z"/>
<path fill="#0A5AA3" opacity="1.000000" stroke="none" 
	d="
M84.904984,28.586294 
	C83.170113,29.050638 81.489906,29.048061 78.950951,29.048161 
	C75.738556,28.991669 73.384918,28.932501 70.933762,28.545258 
	C66.808861,23.975672 65.252342,18.938116 65.986092,13.162693 
	C66.705559,13.107226 67.425034,13.051760 68.554459,13.412335 
	C68.995407,15.654691 68.671127,17.586304 69.171227,19.273577 
	C69.562370,20.593290 70.975784,21.610018 71.934975,22.761370 
	C72.931450,21.648869 74.464973,20.676853 74.801178,19.391626 
	C75.333588,17.356401 75.064491,15.111506 75.134537,12.955330 
	C85.869324,13.309169 84.980484,10.974324 84.996483,23.165745 
	C84.998650,24.816935 84.972633,26.468163 84.904984,28.586294 
z"/>
<path fill="#0667B8" opacity="1.000000" stroke="none" 
	d="
M44.036713,28.930798 
	C45.032356,23.902390 46.000328,18.936293 46.979446,13.568593 
	C50.686142,13.126179 54.381683,13.085367 58.499176,13.491404 
	C57.953262,18.916010 56.985409,23.893770 55.637592,28.912064 
	C54.495640,29.011219 53.733654,29.069841 52.523178,29.100113 
	C49.366341,29.086462 46.657993,29.101164 43.949642,29.115864 
	C43.949642,29.115864 44.009037,28.993113 44.036713,28.930798 
z"/>
<path fill="#179A55" opacity="1.000000" stroke="none" 
	d="
M70.911804,76.218849 
	C72.801491,73.785378 74.661003,71.327713 76.588066,68.924217 
	C79.340805,65.490936 82.142990,62.097309 85.027115,58.347649 
	C87.683029,60.120811 90.235886,62.233063 92.948311,64.649292 
	C91.510422,66.478455 89.912964,68.003647 87.777031,69.734146 
	C83.073586,73.338127 78.908615,76.736816 74.567947,80.278877 
	C73.288292,78.857857 72.100044,77.538353 70.911804,76.218849 
z"/>
<path fill="#0B84D5" opacity="1.000000" stroke="none" 
	d="
M57.106926,76.974792 
	C57.395096,79.385986 57.683262,81.797188 57.968689,84.610886 
	C52.948132,85.003258 47.930313,84.993111 42.449657,84.909866 
	C46.207626,78.976494 50.428429,73.116226 55.253044,67.116272 
	C56.806599,67.341919 57.756344,67.707245 58.635132,68.423294 
	C58.078423,71.507599 57.592674,74.241196 57.106926,76.974792 
z"/>
<path fill="#24A9E8" opacity="1.000000" stroke="none" 
	d="
M27.736403,29.050911 
	C23.253275,35.346050 18.530416,41.580463 13.486731,47.905579 
	C13.115980,41.975761 13.066058,35.955238 13.541587,29.465298 
	C18.382641,28.958214 22.698246,28.920547 27.013851,28.882881 
	C27.013851,28.882881 27.496672,28.990185 27.736403,29.050911 
z"/>
<path fill="#0862B0" opacity="1.000000" stroke="none" 
	d="
M56.017555,28.871531 
	C56.985409,23.893770 57.953262,18.916010 58.955917,13.552738 
	C61.033245,13.124097 63.075768,13.080967 65.552193,13.100266 
	C65.252342,18.938116 66.808861,23.975672 70.487061,28.586231 
	C67.752838,29.010897 65.367805,29.066511 62.548546,29.088493 
	C60.082069,28.993750 58.049812,28.932640 56.017555,28.871531 
z"/>
<path fill="#0175CE" opacity="1.000000" stroke="none" 
	d="
M26.910320,28.561272 
	C22.698246,28.920547 18.382641,28.958214 13.612629,29.002346 
	C13.103417,25.751986 13.296614,22.467400 12.935888,19.244816 
	C12.390019,14.368237 14.054022,12.100994 19.560099,13.094910 
	C19.000996,19.661053 20.977438,24.821550 26.910320,28.561272 
z"/>
<path fill="#169954" opacity="1.000000" stroke="none" 
	d="
M58.950348,86.403778 
	C61.741726,84.080368 64.586861,82.107590 68.069839,80.180511 
	C70.522629,82.128624 72.337585,84.031052 74.152542,85.933472 
	C71.479385,88.432808 68.806221,90.932152 66.048080,93.771324 
	C63.643436,91.658905 61.323769,89.206650 58.950348,86.403778 
z"/>
<path fill="#3BC9F3" opacity="1.000000" stroke="none" 
	d="
M75.076996,12.527296 
	C75.064491,15.111506 75.333588,17.356401 74.801178,19.391626 
	C74.464973,20.676853 72.931450,21.648869 71.934975,22.761370 
	C70.975784,21.610018 69.562370,20.593290 69.171227,19.273577 
	C68.671127,17.586304 68.995407,15.654691 68.915070,13.385876 
	C68.943481,11.817561 69.021248,10.691747 69.126831,9.163342 
	C71.244102,10.011718 75.160400,6.315526 75.076996,12.527296 
z"/>
<path fill="#3BCBF4" opacity="1.000000" stroke="none" 
	d="
M29.074043,12.540842 
	C29.051340,15.088429 29.304569,17.296122 28.770231,19.293083 
	C28.429447,20.566690 26.922201,21.528185 25.937960,22.629622 
	C24.989046,21.489553 23.598383,20.483263 23.202421,19.175739 
	C22.701248,17.520794 23.009308,15.620787 22.918409,13.395206 
	C22.945547,11.836042 23.022627,10.708144 23.127275,9.176867 
	C25.251141,10.005235 29.162819,6.316039 29.074043,12.540842 
z"/>
<path fill="#EDF7F2" opacity="1.000000" stroke="none" 
	d="
M74.494537,85.923538 
	C72.337585,84.031052 70.522629,82.128624 68.408829,80.093796 
	C67.616585,78.627701 67.123184,77.294014 66.629784,75.960327 
	C67.840012,75.940857 69.050232,75.921379 70.586136,76.060379 
	C72.100044,77.538353 73.288292,78.857857 74.567947,80.278877 
	C78.908615,76.736816 83.073586,73.338127 87.601700,70.016708 
	C87.980072,71.228340 88.491203,72.854568 87.931595,73.418777 
	C83.684532,77.700714 79.227867,81.774750 74.494537,85.923538 
z"/>
<path fill="#F8FCFE" opacity="1.000000" stroke="none" 
	d="
M58.706085,68.072578 
	C57.756344,67.707245 56.806599,67.341919 55.552818,66.930977 
	C51.649113,63.465141 47.946575,62.215729 43.706520,65.979424 
	C42.648441,66.918640 41.109344,67.315956 39.432278,67.967087 
	C39.407501,65.720757 39.443275,63.371758 40.142471,61.240402 
	C41.344112,57.577435 40.256248,55.294006 36.396645,53.925949 
	C35.261471,52.975708 34.478416,52.086487 33.422630,51.073006 
	C33.114197,50.542740 33.078495,50.136726 33.441254,49.331276 
	C34.989998,48.745113 36.164799,48.305771 37.286392,48.414623 
	C42.638973,48.934116 45.454235,46.276237 46.990009,41.414654 
	C47.390060,40.148266 48.920849,39.239075 49.986252,38.496300 
	C50.901649,40.602741 51.763088,42.378704 52.723122,44.534958 
	C54.080688,45.938084 55.196850,47.473877 56.629543,47.872742 
	C59.288063,48.612888 62.131409,48.689148 64.897797,49.041847 
	C64.386673,49.831059 64.060020,50.933529 63.335423,51.360218 
	C57.211979,54.966095 56.686531,60.157310 58.917366,66.866920 
	C58.854656,67.709366 58.780369,67.890976 58.706085,68.072578 
z"/>
<path fill="#128FDD" opacity="1.000000" stroke="none" 
	d="
M65.188660,48.861755 
	C62.131409,48.689148 59.288063,48.612888 56.629543,47.872742 
	C55.196850,47.473877 54.080688,45.938084 53.036671,44.355896 
	C56.495338,38.905067 59.739052,34.013596 62.982765,29.122128 
	C65.367805,29.066511 67.752838,29.010897 70.584579,28.914307 
	C73.384918,28.932501 75.738556,28.991669 78.531799,29.082808 
	C74.474121,35.637074 69.976822,42.159367 65.188660,48.861755 
z"/>
<path fill="#1DA663" opacity="1.000000" stroke="none" 
	d="
M58.635132,68.423294 
	C58.780369,67.890976 58.854656,67.709366 59.020359,67.247864 
	C63.442883,61.331211 68.595367,57.100063 76.567413,57.054497 
	C72.554092,65.607620 65.703384,71.741913 57.443146,76.903397 
	C57.592674,74.241196 58.078423,71.507599 58.635132,68.423294 
z"/>
<path fill="#1B9BE2" opacity="1.000000" stroke="none" 
	d="
M49.932297,38.165825 
	C48.920849,39.239075 47.390060,40.148266 46.990009,41.414654 
	C45.454235,46.276237 42.638973,48.934116 37.286392,48.414623 
	C36.164799,48.305771 34.989998,48.745113 33.440826,49.025055 
	C35.642372,44.681705 38.274563,40.263321 40.828510,35.800159 
	C41.940174,33.857460 42.891171,31.822824 43.932388,29.472902 
	C46.657993,29.101164 49.366341,29.086462 52.446846,29.443108 
	C51.856762,32.598240 50.894531,35.382034 49.932297,38.165825 
z"/>
<path fill="#1695DF" opacity="1.000000" stroke="none" 
	d="
M49.986252,38.496300 
	C50.894531,35.382034 51.856762,32.598240 52.895332,29.471458 
	C53.733654,29.069841 54.495640,29.011219 55.637592,28.912064 
	C58.049812,28.932640 60.082069,28.993750 62.548546,29.088493 
	C59.739052,34.013596 56.495338,38.905067 52.938080,43.975601 
	C51.763088,42.378704 50.901649,40.602741 49.986252,38.496300 
z"/>
</svg>