<svg version="1.1" id="Layer_1" xmlns="http://www.w3.org/2000/svg" xmlns:xlink="http://www.w3.org/1999/xlink" x="0px" y="0px"
	 width="100%" viewBox="0 0 96 96" enable-background="new 0 0 96 96" xml:space="preserve">
<path fill="transparent" opacity="1.000000" stroke="none" 
	d="
M66.000000,97.000000 
	C44.000004,97.000000 22.500008,97.000000 1.000009,97.000000 
	C1.000006,65.000008 1.000006,33.000019 1.000003,1.000021 
	C32.999985,1.000014 64.999969,1.000014 96.999969,1.000007 
	C96.999977,32.999981 96.999977,64.999962 96.999985,96.999969 
	C86.833336,97.000000 76.666664,97.000000 66.000000,97.000000 
M16.202972,32.018612 
	C14.035400,33.947613 11.691615,35.718559 9.766431,37.864967 
	C8.613945,39.149883 7.037730,41.720451 7.537529,42.492508 
	C8.771196,44.398190 11.091966,45.600124 13.003242,47.822964 
	C13.058464,48.554996 13.113686,49.287025 13.026728,50.931511 
	C13.073396,54.953228 13.120063,58.974949 13.009954,63.919121 
	C13.062174,68.936714 13.114393,73.954300 13.016316,79.847740 
	C12.981075,87.003647 12.981104,87.013420 20.117483,86.992615 
	C21.744080,86.987869 23.370401,86.889923 25.925795,86.969627 
	C33.618259,86.924706 41.310722,86.879791 49.932602,86.983910 
	C58.998947,86.989281 68.065292,86.996628 77.131638,86.999428 
	C85.258682,87.001938 85.258682,86.999733 84.983063,78.061859 
	C84.932999,73.373451 84.882927,68.685043 84.983231,63.078480 
	C84.930389,58.722656 84.877548,54.366837 84.983971,49.291573 
	C84.991554,48.554790 84.999146,47.818005 85.759407,47.002090 
	C91.258133,44.875401 92.256073,41.646080 88.359489,37.926655 
	C85.420341,35.121140 82.202904,32.607182 78.805466,29.355249 
	C74.199974,25.298172 69.594482,21.241093 64.386780,16.863689 
	C60.628170,13.442805 56.878029,10.012553 53.108131,6.604157 
	C50.352135,4.112439 47.614559,4.171570 44.837368,6.642503 
	C40.572308,10.437231 36.261822,14.180907 31.353498,18.208296 
	C26.532555,22.793301 21.711611,27.378305 16.202972,32.018612 
z"/>
<path fill="#F7F7F7" opacity="1.000000" stroke="none" 
	d="
M13.166731,62.996666 
	C13.120063,58.974949 13.073396,54.953228 13.437368,50.423977 
	C19.276600,45.387596 24.786495,40.951950 30.112604,36.305630 
	C36.364536,30.851646 42.456757,25.214588 49.142895,19.183699 
	C55.161983,25.147961 60.617344,30.553631 65.791061,36.157883 
	C62.155560,38.659561 58.857803,41.050251 55.433365,43.243118 
	C51.344421,45.861515 47.147030,48.310555 42.533684,50.902756 
	C39.130787,50.980709 36.190819,50.994125 33.250847,50.996006 
	C25.254627,51.001118 25.254625,50.999184 24.451391,58.998039 
	C20.435579,60.332294 16.801155,61.664482 13.166731,62.996666 
z"/>
<path fill="#DE490D" opacity="1.000000" stroke="none" 
	d="
M24.832779,58.995968 
	C25.254625,50.999184 25.254627,51.001118 33.250847,50.996006 
	C36.190819,50.994125 39.130787,50.980709 42.957550,50.976456 
	C47.920036,50.398109 49.425148,52.156723 49.062485,56.213535 
	C48.803204,59.113899 49.111977,62.065048 49.093212,65.453308 
	C49.068455,70.269043 49.117771,74.625015 49.098228,79.414612 
	C49.020645,82.177116 49.011917,84.505997 49.003189,86.834877 
	C41.310722,86.879791 33.618259,86.924706 25.462200,86.467880 
	C24.942434,83.633949 24.886263,81.301773 24.899446,78.507721 
	C24.923462,71.695892 24.878120,65.345932 24.832779,58.995968 
z"/>
<path fill="#EDEDED" opacity="1.000000" stroke="none" 
	d="
M49.167088,78.980988 
	C49.117771,74.625015 49.068455,70.269043 49.447289,65.405991 
	C52.193516,64.263397 54.511585,63.627884 56.898369,63.342049 
	C57.277061,64.534012 57.587044,65.376305 58.164097,66.509247 
	C60.290905,66.811455 62.150650,66.823013 64.450882,66.899193 
	C73.266800,67.079048 73.267075,67.079033 72.899635,58.492104 
	C72.892746,58.331207 72.854881,58.171631 72.900772,57.602051 
	C72.941536,55.810497 72.912994,54.428337 73.204414,52.909248 
	C75.689400,51.174671 77.854431,49.577019 80.319008,48.114857 
	C82.020607,48.837238 83.422653,49.424126 84.824707,50.011013 
	C84.877548,54.366837 84.930389,58.722656 84.540222,63.546288 
	C76.464806,67.755386 68.793655,71.421112 61.230946,75.298370 
	C59.617233,76.125679 58.397560,77.721581 56.559906,78.973511 
	C53.804665,78.982742 51.485878,78.981865 49.167088,78.980988 
z"/>
<path fill="#CE3A05" opacity="1.000000" stroke="none" 
	d="
M31.970613,17.946247 
	C36.261822,14.180907 40.572308,10.437231 44.837368,6.642503 
	C47.614559,4.171570 50.352135,4.112439 53.108131,6.604157 
	C56.878029,10.012553 60.628170,13.442805 64.592239,17.380680 
	C61.796227,19.085815 58.794746,20.273962 55.481697,21.312586 
	C53.085320,19.435577 51.000511,17.708094 49.010349,16.059032 
	C46.624969,17.953262 44.595661,19.564732 42.122814,21.100733 
	C39.656174,20.683195 37.585125,20.506939 35.626854,19.940680 
	C34.324745,19.564159 33.183735,18.630520 31.970613,17.946247 
z"/>
<path fill="#E3DFDD" opacity="1.000000" stroke="none" 
	d="
M42.566357,21.176201 
	C44.595661,19.564732 46.624969,17.953262 49.010349,16.059032 
	C51.000511,17.708094 53.085320,19.435577 55.652607,21.583420 
	C59.693558,25.022306 63.252029,28.040838 66.969353,31.361374 
	C73.087715,36.802658 79.047218,41.941940 85.006729,47.081223 
	C84.999146,47.818005 84.991554,48.554790 84.904343,49.651291 
	C83.422653,49.424126 82.020607,48.837238 80.165588,47.818512 
	C75.165993,43.577553 70.619347,39.768425 66.072708,35.959301 
	C60.617344,30.553631 55.161983,25.147961 49.142895,19.183699 
	C42.456757,25.214588 36.364536,30.851646 30.112604,36.305630 
	C24.786495,40.951950 19.276600,45.387596 13.508458,49.967751 
	C13.113686,49.287025 13.058464,48.554996 13.284254,47.285816 
	C18.710762,42.165535 23.856258,37.582401 29.317177,32.886215 
	C33.943851,28.907511 38.255104,25.041857 42.566357,21.176201 
z"/>
<path fill="#C8D3DE" opacity="1.000000" stroke="none" 
	d="
M49.098228,79.414612 
	C51.485878,78.981865 53.804665,78.982742 57.028717,78.987915 
	C66.900078,78.988518 75.866173,78.984818 84.832275,78.981125 
	C85.258682,86.999733 85.258682,87.001938 77.131638,86.999428 
	C68.065292,86.996628 58.998947,86.989281 49.467896,86.909393 
	C49.011917,84.505997 49.020645,82.177116 49.098228,79.414612 
z"/>
<path fill="#EAEAEA" opacity="1.000000" stroke="none" 
	d="
M84.907669,78.521492 
	C75.866173,78.984818 66.900078,78.988518 57.465164,78.977806 
	C58.397560,77.721581 59.617233,76.125679 61.230946,75.298370 
	C68.793655,71.421112 76.464806,67.755386 84.465042,64.005371 
	C84.882927,68.685043 84.932999,73.373451 84.907669,78.521492 
z"/>
<path fill="#F4F4F4" opacity="1.000000" stroke="none" 
	d="
M24.451391,58.998039 
	C24.878120,65.345932 24.923462,71.695892 24.452610,78.514610 
	C20.346485,78.979546 16.756548,78.975716 13.166613,78.971893 
	C13.114393,73.954300 13.062174,68.936714 13.088343,63.457893 
	C16.801155,61.664482 20.435579,60.332294 24.451391,58.998039 
z"/>
<path fill="#C03A0C" opacity="1.000000" stroke="none" 
	d="
M85.383072,47.041656 
	C79.047218,41.941940 73.087715,36.802658 67.406418,31.343254 
	C71.492867,30.669907 75.301094,30.316679 79.109329,29.963451 
	C82.202904,32.607182 85.420341,35.121140 88.359489,37.926655 
	C92.256073,41.646080 91.258133,44.875401 85.383072,47.041656 
z"/>
<path fill="#C73A09" opacity="1.000000" stroke="none" 
	d="
M42.122814,21.100731 
	C38.255104,25.041857 33.943851,28.907511 28.872173,32.886089 
	C24.371387,32.653778 20.631029,32.308544 16.890669,31.963312 
	C21.711611,27.378305 26.532555,22.793301 31.662056,18.077271 
	C33.183735,18.630520 34.324745,19.564159 35.626854,19.940680 
	C37.585125,20.506939 39.656174,20.683195 42.122814,21.100731 
z"/>
<path fill="#C03A0D" opacity="1.000000" stroke="none" 
	d="
M16.546822,31.990963 
	C20.631029,32.308544 24.371387,32.653778 28.556751,32.999138 
	C23.856258,37.582401 18.710762,42.165535 13.270506,46.916805 
	C11.091966,45.600124 8.771196,44.398190 7.537529,42.492508 
	C7.037730,41.720451 8.613945,39.149883 9.766431,37.864967 
	C11.691615,35.718559 14.035400,33.947613 16.546822,31.990963 
z"/>
<path fill="#C93B09" opacity="1.000000" stroke="none" 
	d="
M78.957397,29.659351 
	C75.301094,30.316679 71.492867,30.669907 67.247566,31.041252 
	C63.252029,28.040838 59.693558,25.022306 55.964180,21.732941 
	C58.794746,20.273962 61.796227,19.085815 64.893349,17.540842 
	C69.594482,21.241093 74.199974,25.298172 78.957397,29.659351 
z"/>
<path fill="#C8D3DE" opacity="1.000000" stroke="none" 
	d="
M13.091465,79.409813 
	C16.756548,78.975716 20.346485,78.979546 24.383255,78.976486 
	C24.886263,81.301773 24.942434,83.633949 24.997726,86.400497 
	C23.370401,86.889923 21.744080,86.987869 20.117483,86.992615 
	C12.981104,87.013420 12.981075,87.003647 13.091465,79.409813 
z"/>
<path fill="#F3F3F3" opacity="1.000000" stroke="none" 
	d="
M65.791061,36.157883 
	C70.619347,39.768425 75.165993,43.577553 79.866043,47.683022 
	C77.854431,49.577019 75.689400,51.174671 73.014702,52.884567 
	C72.505028,52.996815 72.126137,52.943363 72.041443,52.539368 
	C69.308365,51.812832 66.659973,51.490295 63.587154,51.098526 
	C56.793686,51.033081 56.793686,51.033081 57.101578,58.422565 
	C56.968670,60.220516 56.899162,61.606441 56.829655,62.992371 
	C54.511585,63.627884 52.193516,64.263397 49.521362,64.946228 
	C49.111977,62.065048 48.803204,59.113899 49.062485,56.213535 
	C49.425148,52.156723 47.920036,50.398109 43.420479,50.906654 
	C47.147030,48.310555 51.344421,45.861515 55.433365,43.243118 
	C58.857803,41.050251 62.155560,38.659561 65.791061,36.157883 
z"/>
<path fill="#23A7E7" opacity="1.000000" stroke="none" 
	d="
M64.011581,51.167763 
	C66.659973,51.490295 69.308365,51.812832 71.689095,52.585934 
	C66.913300,57.430531 62.405167,61.824562 57.897034,66.218590 
	C57.587044,65.376305 57.277061,64.534012 56.898369,63.342049 
	C56.899162,61.606441 56.968670,60.220516 57.432495,58.375332 
	C59.888401,55.666637 61.949993,53.417202 64.011581,51.167763 
z"/>
<path fill="#1A9BE2" opacity="1.000000" stroke="none" 
	d="
M58.164101,66.509247 
	C62.405167,61.824562 66.913300,57.430531 71.773788,52.989929 
	C72.126137,52.943363 72.505028,52.996815 72.694740,53.021496 
	C72.912994,54.428337 72.941536,55.810497 72.568771,57.643387 
	C69.448441,61.007599 66.729416,63.921082 64.010391,66.834564 
	C62.150650,66.823013 60.290905,66.811455 58.164101,66.509247 
z"/>
<path fill="#128FDD" opacity="1.000000" stroke="none" 
	d="
M64.450882,66.899193 
	C66.729416,63.921082 69.448441,61.007599 72.499466,58.052780 
	C72.854881,58.171631 72.892746,58.331207 72.899635,58.492104 
	C73.267075,67.079033 73.266800,67.079048 64.450882,66.899193 
z"/>
<path fill="#2CB3EC" opacity="1.000000" stroke="none" 
	d="
M63.587154,51.098526 
	C61.949993,53.417202 59.888401,55.666637 57.495895,57.963310 
	C56.793686,51.033081 56.793686,51.033081 63.587154,51.098526 
z"/>
</svg>