<svg version="1.1" id="Layer_1" xmlns="http://www.w3.org/2000/svg" xmlns:xlink="http://www.w3.org/1999/xlink" x="0px" y="0px"
	 width="100%" viewBox="0 0 64 64" enable-background="new 0 0 64 64" xml:space="preserve">
<path fill="transparent" opacity="1.000000" stroke="none" 
	d="
M34.000000,65.000000 
	C22.687866,65.000000 11.875731,65.000000 1.031798,65.000000 
	C1.031798,43.729649 1.031798,22.459242 1.031798,1.094417 
	C22.228270,1.094417 43.457100,1.094417 64.842964,1.094417 
	C64.842964,22.332422 64.842964,43.666092 64.842964,65.000000 
	C54.793522,65.000000 44.646763,65.000000 34.000000,65.000000 
M26.613522,21.061811 
	C26.884460,21.281673 27.043362,21.564480 27.320374,22.496658 
	C30.222862,25.686686 29.721432,27.657614 26.003103,30.314426 
	C23.108837,32.382431 19.033794,34.700497 19.946873,39.812088 
	C20.540190,43.133575 18.534050,43.956509 15.486103,44.055805 
	C2.855997,44.467278 2.584195,44.873314 4.198168,57.736626 
	C4.258255,58.215519 4.533176,58.667454 4.938987,59.721889 
	C5.581960,60.245399 6.224932,60.768909 7.620768,61.664143 
	C24.418932,61.761974 41.217709,61.937988 58.014061,61.805943 
	C59.326607,61.795628 61.542721,59.795677 61.781944,58.444744 
	C63.943520,46.237946 62.505287,44.443653 50.481831,44.057354 
	C47.410488,43.958675 46.103069,43.092823 45.844223,39.794201 
	C45.679638,37.696789 44.449963,35.255154 42.920738,33.765873 
	C35.889587,26.918388 35.791473,27.019133 39.652363,20.820292 
	C39.837132,20.367294 40.000412,19.528646 40.209766,19.516983 
	C48.058674,19.079681 48.062389,19.089939 47.994690,11.502853 
	C47.987350,10.680238 47.917515,9.858179 47.810696,8.297467 
	C47.591797,7.860020 47.482479,7.172461 47.138042,7.021557 
	C37.536064,2.814803 27.980322,2.172450 17.947853,8.045837 
	C18.152735,11.847474 18.357618,15.649112 19.055243,20.030626 
	C21.420450,20.315821 23.785660,20.601013 26.613522,21.061811 
M8.252943,30.560734 
	C9.931513,32.147240 11.610083,33.733746 13.288652,35.320251 
	C12.651869,34.623440 12.015085,33.926624 11.378302,33.229813 
	C13.546283,31.375704 15.714264,29.521597 17.882244,27.667490 
	C17.869238,28.590269 17.856232,29.513048 17.843225,30.435825 
	C15.765848,28.324842 13.688471,26.213858 11.611094,24.102873 
	C11.099823,24.754139 9.037488,26.464928 7.114743,28.320370 
	C6.901157,28.526482 7.482976,29.556850 8.252943,30.560734 
M51.160927,33.111557 
	C51.801434,33.897659 52.441940,34.683758 53.082447,35.469860 
	C52.513908,34.661198 51.945370,33.852535 51.376831,33.043877 
	C53.602074,31.267521 55.827316,29.491167 58.052555,27.714813 
	C57.930637,28.632875 57.808723,29.550938 57.686806,30.469002 
	C55.642849,28.326336 53.598888,26.183672 51.554932,24.041006 
	C52.536957,24.170275 53.518978,24.299541 54.501003,24.428808 
	C52.273434,26.389557 50.045864,28.350304 47.818295,30.311050 
	C47.460117,29.965790 47.101940,29.620529 46.743763,29.275267 
	C48.143097,30.340614 49.542427,31.405960 51.160927,33.111557 
z"/>
<path fill="#232B41" opacity="1.000000" stroke="none" 
	d="
M39.012142,21.170048 
	C35.791473,27.019133 35.889587,26.918388 42.920738,33.765873 
	C44.449963,35.255154 45.679638,37.696789 45.844223,39.794201 
	C46.103069,43.092823 47.410488,43.958675 50.481831,44.057354 
	C62.505287,44.443653 63.943520,46.237946 61.781944,58.444744 
	C61.542721,59.795677 59.326607,61.795628 58.014061,61.805943 
	C41.217709,61.937988 24.418932,61.761974 7.589858,61.361908 
	C8.413036,60.739956 9.267125,60.420235 10.404917,60.085106 
	C11.067263,60.081123 11.445906,60.092556 12.096802,60.443340 
	C17.243143,60.484226 22.117229,60.185760 27.357922,60.089569 
	C32.474628,60.150791 37.224735,60.009739 42.319374,59.913696 
	C43.125690,59.933784 43.587482,59.908863 44.285347,59.910103 
	C44.521423,59.936268 44.992249,59.873089 45.363487,60.082516 
	C49.635994,60.515160 53.540363,60.889271 57.435390,60.809143 
	C58.065189,60.796188 59.109501,58.791687 59.177265,57.660732 
	C59.399796,53.946785 59.260921,50.211189 59.260921,46.124779 
	C54.843689,46.124779 49.911861,46.124779 44.712082,45.809753 
	C44.245560,42.656452 44.046993,39.818176 43.669518,36.693314 
	C42.016739,35.882923 40.542870,35.359119 39.226662,34.520935 
	C38.917103,33.471237 38.538727,32.654701 37.959785,32.021542 
	C37.264172,31.260784 35.928455,30.787676 35.696110,29.958504 
	C35.076687,27.747934 34.900105,25.413275 34.518120,22.937679 
	C35.693233,22.321928 36.901855,21.688616 38.340546,21.047455 
	C38.570610,21.039604 39.012142,21.170048 39.012142,21.170048 
z"/>
<path fill="#232B41" opacity="1.000000" stroke="none" 
	d="
M4.707983,59.131954 
	C4.533176,58.667454 4.258255,58.215519 4.198168,57.736626 
	C2.584195,44.873314 2.855997,44.467278 15.486103,44.055805 
	C18.534050,43.956509 20.540190,43.133575 19.946873,39.812088 
	C19.033794,34.700497 23.108837,32.382431 26.003103,30.314426 
	C29.721432,27.657614 30.222862,25.686686 27.515200,22.245129 
	C28.126484,22.037762 28.542942,22.081926 29.125296,22.422447 
	C29.922979,23.286495 31.156038,23.946276 31.085564,24.406412 
	C30.723038,26.773460 30.025757,29.089239 29.350994,31.802338 
	C28.148056,31.926083 26.643896,32.080811 24.896992,32.260513 
	C25.298571,33.486763 25.543201,34.233768 25.467648,35.159691 
	C20.444855,37.015629 19.934998,38.547958 21.620386,45.036453 
	C17.948500,45.647430 14.642789,46.060364 11.189930,46.343483 
	C10.656669,46.184761 10.270556,46.155861 9.454789,46.080906 
	C7.797868,46.107658 6.570601,46.180466 4.707983,46.290958 
	C4.707983,50.778183 4.707983,54.955067 4.707983,59.131954 
z"/>
<path fill="#283047" opacity="1.000000" stroke="none" 
	d="
M7.974427,30.382843 
	C7.482976,29.556850 6.901157,28.526482 7.114743,28.320370 
	C9.037488,26.464928 11.099823,24.754139 11.611094,24.102873 
	C13.688471,26.213858 15.765848,28.324842 17.843225,30.435825 
	C17.856232,29.513048 17.869238,28.590269 17.882244,27.667490 
	C15.714264,29.521597 13.546283,31.375704 11.378302,33.229813 
	C12.015085,33.926624 12.651869,34.623440 13.288652,35.320251 
	C11.610083,33.733746 9.931513,32.147240 7.974427,30.382843 
z"/>
<path fill="#283047" opacity="1.000000" stroke="none" 
	d="
M51.051346,32.791431 
	C49.542427,31.405960 48.143097,30.340614 46.743763,29.275267 
	C47.101940,29.620529 47.460117,29.965790 47.818295,30.311050 
	C50.045864,28.350304 52.273434,26.389557 54.501003,24.428808 
	C53.518978,24.299541 52.536957,24.170275 51.554932,24.041006 
	C53.598888,26.183672 55.642849,28.326336 57.686806,30.469002 
	C57.808723,29.550938 57.930637,28.632875 58.052555,27.714813 
	C55.827316,29.491167 53.602074,31.267521 51.376831,33.043877 
	C51.945370,33.852535 52.513908,34.661198 53.082447,35.469860 
	C52.441940,34.683758 51.801434,33.897659 51.051346,32.791431 
z"/>
<path fill="#99A2B9" opacity="1.000000" stroke="none" 
	d="
M4.823485,59.426922 
	C4.707983,54.955067 4.707983,50.778183 4.707983,46.290958 
	C6.570601,46.180466 7.797868,46.107658 9.487713,46.536781 
	C10.007266,51.392647 10.064240,55.746578 10.121214,60.100513 
	C9.267125,60.420235 8.413036,60.739956 7.213426,61.176048 
	C6.224932,60.768909 5.581960,60.245399 4.823485,59.426922 
z"/>
<path fill="#232B40" opacity="1.000000" stroke="none" 
	d="
M18.548965,7.556068 
	C27.980322,2.172450 37.536064,2.814803 47.138042,7.021557 
	C47.482479,7.172461 47.591797,7.860020 47.651123,8.641718 
	C47.491547,8.985969 47.103397,8.954709 46.877361,8.623383 
	C44.780304,8.162122 42.909283,8.032187 40.907700,7.605170 
	C39.850971,6.930605 38.924797,6.553122 37.539368,6.105499 
	C31.064539,6.702429 25.048975,7.369496 18.916512,7.912190 
	C18.799616,7.787817 18.548965,7.556068 18.548965,7.556068 
z"/>
<path fill="#F9AC2F" opacity="1.000000" stroke="none" 
	d="
M47.103397,8.954710 
	C47.103397,8.954709 47.491547,8.985969 47.684109,9.010916 
	C47.917515,9.858179 47.987350,10.680238 47.994690,11.502853 
	C48.062389,19.089939 48.058674,19.079681 40.209766,19.516983 
	C40.000412,19.528646 39.837132,20.367294 39.332253,20.995171 
	C39.012142,21.170048 38.570610,21.039604 38.150650,20.783802 
	C38.763298,18.685215 39.795910,16.842430 40.899914,15.337296 
	C42.492867,16.216160 44.014427,16.757376 45.957302,17.448450 
	C45.957302,14.271350 45.957302,12.192666 46.130737,9.903880 
	C46.570580,9.447422 46.836990,9.201066 47.103397,8.954710 
z"/>
<path fill="#232B40" opacity="1.000000" stroke="none" 
	d="
M18.562502,19.450748 
	C18.357618,15.649112 18.152735,11.847474 18.248409,7.800953 
	C18.548965,7.556068 18.799616,7.787817 18.868057,8.136702 
	C18.936501,8.485585 18.823360,8.930795 18.502167,9.181687 
	C18.399822,12.311873 18.618673,15.191168 18.892092,18.291225 
	C18.946659,18.511992 19.040455,18.957031 18.916763,19.076389 
	C18.793072,19.195749 18.562502,19.450748 18.562502,19.450748 
z"/>
<path fill="#232B40" opacity="1.000000" stroke="none" 
	d="
M26.150867,20.886208 
	C23.785660,20.601013 21.420450,20.315821 18.808872,19.740688 
	C18.562502,19.450748 18.793072,19.195749 19.128983,19.088602 
	C19.464891,18.981455 19.886356,19.037218 19.974567,19.281527 
	C20.366457,19.626961 20.670137,19.728088 21.340193,19.896191 
	C23.228746,19.974880 24.750927,19.986597 26.198528,20.214226 
	C26.123947,20.430140 26.150867,20.886208 26.150867,20.886208 
z"/>
<path fill="#F9AC2F" opacity="1.000000" stroke="none" 
	d="
M26.382195,20.974010 
	C26.150867,20.886208 26.123947,20.430140 26.509571,20.259897 
	C27.583263,20.768467 28.271332,21.447279 28.959400,22.126091 
	C28.542942,22.081926 28.126484,22.037762 27.400126,21.951912 
	C27.043362,21.564480 26.884460,21.281673 26.382195,20.974010 
z"/>
<path fill="#F9AC2F" opacity="1.000000" stroke="none" 
	d="
M29.125296,22.422447 
	C28.271332,21.447279 27.583263,20.768467 26.584152,20.043983 
	C24.750927,19.986597 23.228746,19.974880 21.172075,19.746738 
	C20.403349,19.341305 20.152941,19.176941 19.886356,19.037218 
	C19.886356,19.037218 19.464891,18.981455 19.252674,18.969242 
	C19.040455,18.957031 18.946659,18.511992 19.110271,18.111940 
	C19.530178,17.436605 19.786474,17.161322 20.421471,16.932943 
	C22.148333,16.979851 23.496492,16.979851 24.686237,16.979851 
	C24.686237,14.583175 24.686237,12.388550 24.686237,10.114063 
	C22.929274,10.114063 21.486086,10.114063 19.857517,9.898947 
	C19.389212,9.432819 19.106285,9.181808 18.823360,8.930795 
	C18.823360,8.930795 18.936501,8.485585 18.984955,8.261074 
	C25.048975,7.369496 31.064539,6.702429 37.617508,6.383899 
	C39.116032,7.122374 40.077145,7.512312 41.038261,7.902251 
	C42.909283,8.032187 44.780304,8.162122 46.877361,8.623384 
	C46.836990,9.201066 46.570580,9.447422 45.708241,9.857067 
	C43.774464,10.104127 42.436619,10.187896 41.167259,10.267376 
	C41.030704,12.175117 40.929615,13.587380 40.828522,14.999644 
	C39.795910,16.842430 38.763298,18.685215 37.920586,20.791653 
	C36.901855,21.688616 35.693233,22.321928 34.518120,22.937679 
	C34.900105,25.413275 35.076687,27.747934 35.696110,29.958504 
	C35.928455,30.787676 37.264172,31.260784 37.959785,32.021542 
	C38.538727,32.654701 38.917103,33.471237 38.767067,34.590637 
	C34.397804,35.301685 30.645796,35.628643 26.635418,35.902679 
	C26.180645,35.560097 25.984240,35.270435 25.787834,34.980774 
	C25.543201,34.233768 25.298571,33.486763 24.896992,32.260513 
	C26.643896,32.080811 28.148056,31.926083 29.350994,31.802338 
	C30.025757,29.089239 30.723038,26.773460 31.085564,24.406412 
	C31.156038,23.946276 29.922979,23.286495 29.125296,22.422447 
z"/>
<path fill="#0079A8" opacity="1.000000" stroke="none" 
	d="
M26.893787,35.955601 
	C30.645796,35.628643 34.397804,35.301685 38.609406,34.905022 
	C40.542870,35.359119 42.016739,35.882923 43.348743,36.895927 
	C42.805233,39.089951 42.102268,40.786804 42.056870,42.501068 
	C41.903633,48.286942 41.983875,54.078995 41.974842,59.868687 
	C37.224735,60.009739 32.474628,60.150791 27.344046,59.873985 
	C26.963568,59.456135 26.893576,59.029552 27.285519,58.961693 
	C28.404291,58.112579 29.732071,57.353046 29.761211,56.546589 
	C29.962671,50.971523 30.027786,45.380783 29.783148,39.810612 
	C29.740891,38.848469 28.015982,37.960228 27.026005,36.767075 
	C26.953730,36.316071 26.923758,36.135838 26.893787,35.955601 
M34.976265,48.427647 
	C35.206852,49.809540 35.437443,51.191437 35.668030,52.573330 
	C36.298107,52.456966 36.928185,52.340599 37.558262,52.224236 
	C37.081760,49.370090 36.605259,46.515942 36.128761,43.661797 
	C35.649330,43.746559 35.169899,43.831322 34.690468,43.916084 
	C34.786842,45.178883 34.883221,46.441677 34.976265,48.427647 
z"/>
<path fill="#B7C0D7" opacity="1.000000" stroke="none" 
	d="
M26.893576,59.029552 
	C26.893576,59.029552 26.963568,59.456135 26.977444,59.671715 
	C22.117229,60.185760 17.243143,60.484226 12.114611,59.969273 
	C11.685803,54.928337 11.511440,50.700817 11.337078,46.473301 
	C14.642789,46.060364 17.948500,45.647430 22.011814,45.100639 
	C23.826614,45.022343 24.883810,45.077896 26.082462,45.460304 
	C26.447140,50.201294 26.670359,54.615421 26.893576,59.029552 
z"/>
<path fill="#B7C0D7" opacity="1.000000" stroke="none" 
	d="
M44.980034,46.124779 
	C49.911861,46.124779 54.843689,46.124779 59.260921,46.124779 
	C59.260921,50.211189 59.399796,53.946785 59.177265,57.660732 
	C59.109501,58.791687 58.065189,60.796188 57.435390,60.809143 
	C53.540363,60.889271 49.635994,60.515160 45.344437,59.865448 
	C44.954151,59.438957 44.825127,59.022373 45.015739,58.648491 
	C45.130909,54.224667 45.055473,50.174725 44.980034,46.124779 
z"/>
<path fill="#006A99" opacity="1.000000" stroke="none" 
	d="
M44.712082,45.809753 
	C45.055473,50.174725 45.130909,54.224667 44.872925,58.779522 
	C44.359955,59.471073 44.196545,59.670910 44.049271,59.883942 
	C43.587482,59.908863 43.125690,59.933784 42.319374,59.913696 
	C41.983875,54.078995 41.903633,48.286942 42.056870,42.501068 
	C42.102268,40.786804 42.805233,39.089951 43.527649,37.182510 
	C44.046993,39.818176 44.245560,42.656452 44.712082,45.809753 
z"/>
<path fill="#5D667D" opacity="1.000000" stroke="none" 
	d="
M11.189930,46.343483 
	C11.511440,50.700817 11.685803,54.928337 11.842357,59.629921 
	C11.445906,60.092556 11.067263,60.081123 10.404918,60.085106 
	C10.064240,55.746578 10.007266,51.392647 9.917368,46.582832 
	C10.270556,46.155861 10.656669,46.184761 11.189930,46.343483 
z"/>
<path fill="#0079A8" opacity="1.000000" stroke="none" 
	d="
M44.285347,59.910103 
	C44.196545,59.670910 44.359955,59.471073 44.682312,59.153404 
	C44.825127,59.022373 44.954151,59.438957 44.973198,59.656021 
	C44.992249,59.873089 44.521423,59.936268 44.285347,59.910103 
z"/>
<path fill="#005B8A" opacity="1.000000" stroke="none" 
	d="
M25.941006,45.133450 
	C24.883810,45.077896 23.826614,45.022343 22.377991,44.902603 
	C19.934998,38.547958 20.444855,37.015629 25.467648,35.159691 
	C25.984240,35.270435 26.180645,35.560097 26.635418,35.902679 
	C26.923758,36.135838 26.953730,36.316071 27.006248,37.192680 
	C26.666199,40.303856 26.303602,42.718655 25.941006,45.133450 
z"/>
<path fill="#F7AB2F" opacity="1.000000" stroke="none" 
	d="
M40.907700,7.605170 
	C40.077145,7.512312 39.116032,7.122374 38.076771,6.454037 
	C38.924797,6.553122 39.850971,6.930605 40.907700,7.605170 
z"/>
<path fill="#212A41" opacity="1.000000" stroke="none" 
	d="
M40.899914,15.337296 
	C40.929615,13.587380 41.030704,12.175117 41.167259,10.267376 
	C42.436619,10.187896 43.774464,10.104127 45.534805,10.067169 
	C45.957302,12.192666 45.957302,14.271350 45.957302,17.448450 
	C44.014427,16.757376 42.492867,16.216160 40.899914,15.337296 
M42.385349,12.139723 
	C42.541065,13.306095 42.696777,14.472467 42.852493,15.638839 
	C43.534576,15.338469 44.216663,15.038098 44.898750,14.737728 
	C44.214832,13.701201 43.530910,12.664674 42.385349,12.139723 
z"/>
<path fill="#F9AC2F" opacity="1.000000" stroke="none" 
	d="
M18.502167,9.181687 
	C19.106285,9.181808 19.389212,9.432819 19.840237,10.321894 
	C20.019812,12.935316 20.031290,14.910676 20.042768,16.886036 
	C19.786474,17.161322 19.530178,17.436605 19.055702,17.891174 
	C18.618673,15.191168 18.399822,12.311873 18.502167,9.181687 
z"/>
<path fill="#F9AC2F" opacity="1.000000" stroke="none" 
	d="
M19.974567,19.281527 
	C20.152941,19.176941 20.403349,19.341305 20.805702,19.679764 
	C20.670137,19.728088 20.366457,19.626961 19.974567,19.281527 
z"/>
<path fill="#212A41" opacity="1.000000" stroke="none" 
	d="
M20.421471,16.932943 
	C20.031290,14.910676 20.019812,12.935316 20.025616,10.537010 
	C21.486086,10.114063 22.929274,10.114063 24.686237,10.114063 
	C24.686237,12.388550 24.686237,14.583175 24.686237,16.979851 
	C23.496492,16.979851 22.148333,16.979851 20.421471,16.932943 
M21.827356,15.358402 
	C22.413837,14.305008 23.000319,13.251615 23.586800,12.198220 
	C22.930603,11.928502 22.274406,11.658783 21.618208,11.389065 
	C21.537727,12.537356 21.457245,13.685647 21.827356,15.358402 
z"/>
<path fill="#0F88B7" opacity="1.000000" stroke="none" 
	d="
M26.082462,45.460304 
	C26.303602,42.718655 26.666199,40.303856 27.048553,37.463455 
	C28.015982,37.960228 29.740891,38.848469 29.783148,39.810612 
	C30.027786,45.380783 29.962671,50.971523 29.761211,56.546589 
	C29.732071,57.353046 28.404291,58.112579 27.285519,58.961693 
	C26.670359,54.615421 26.447140,50.201294 26.082462,45.460304 
z"/>
<path fill="#124E71" opacity="1.000000" stroke="none" 
	d="
M34.977928,48.066063 
	C34.883221,46.441677 34.786842,45.178883 34.690468,43.916084 
	C35.169899,43.831322 35.649330,43.746559 36.128761,43.661797 
	C36.605259,46.515942 37.081760,49.370090 37.558262,52.224236 
	C36.928185,52.340599 36.298107,52.456966 35.668030,52.573330 
	C35.437443,51.191437 35.206852,49.809540 34.977928,48.066063 
z"/>
<path fill="#000000" opacity="1.000000" stroke="none" 
	d="
M42.616173,11.883934 
	C43.530910,12.664674 44.214832,13.701201 44.898750,14.737728 
	C44.216663,15.038098 43.534576,15.338469 42.852493,15.638839 
	C42.696777,14.472467 42.541065,13.306095 42.616173,11.883934 
z"/>
<path fill="#000000" opacity="1.000000" stroke="none" 
	d="
M21.602058,15.096170 
	C21.457245,13.685647 21.537727,12.537356 21.618208,11.389065 
	C22.274406,11.658783 22.930603,11.928502 23.586800,12.198220 
	C23.000319,13.251615 22.413837,14.305008 21.602058,15.096170 
z"/>
</svg>