<svg version="1.1" id="Layer_1" xmlns="http://www.w3.org/2000/svg" xmlns:xlink="http://www.w3.org/1999/xlink" x="0px" y="0px"
	 width="100%" viewBox="0 0 96 96" enable-background="new 0 0 96 96" xml:space="preserve">
<path fill="transparent" opacity="1.000000" stroke="none" 
	d="
M63.000000,97.000000 
	C42.000000,97.000000 21.500000,97.000000 1.000000,97.000000 
	C1.000000,65.000000 1.000000,33.000000 1.000000,1.000000 
	C33.000000,1.000000 65.000000,1.000000 97.000000,1.000000 
	C97.000000,33.000000 97.000000,65.000000 97.000000,97.000000 
	C85.833336,97.000000 74.666664,97.000000 63.000000,97.000000 
M61.951607,86.977608 
	C61.951607,86.977608 61.964100,86.908257 62.717712,86.872047 
	C66.799187,84.525970 70.880653,82.179893 75.633476,79.777504 
	C76.694229,78.738838 77.808121,77.748672 78.807487,76.653969 
	C88.454948,66.086189 90.960342,53.697239 88.013336,39.166542 
	C87.304008,36.698391 87.033699,33.980728 85.800232,31.810472 
	C82.543930,26.081062 79.633904,19.929873 72.789619,16.327076 
	C65.243652,10.112681 56.415642,9.065797 46.947399,8.837517 
	C31.738571,8.470832 15.314091,20.536068 10.944949,35.295650 
	C6.709305,49.604259 7.992875,63.125137 18.188711,75.677933 
	C19.913511,77.322777 21.638313,78.967613 23.843594,80.814316 
	C25.474319,81.767563 27.105047,82.720810 28.788521,83.899384 
	C28.788521,83.899384 29.014887,83.856918 29.128948,84.312317 
	C29.128948,84.312317 29.431723,84.659874 29.431723,84.659874 
	C29.431723,84.659874 29.885887,84.590584 30.465467,84.812584 
	C30.669310,84.847900 30.873154,84.883224 31.373297,85.518059 
	C32.245800,85.679070 33.118305,85.840080 34.166248,86.434288 
	C34.166248,86.434288 34.516727,86.743774 34.516727,86.743774 
	C34.516727,86.743774 34.971989,86.637154 35.512035,86.853401 
	C35.702087,86.891891 35.892136,86.930389 36.437378,87.604752 
	C37.642895,87.729843 38.848415,87.854927 40.371399,88.442032 
	C40.906693,88.476799 41.441990,88.511566 42.707603,88.742188 
	C43.460011,88.724358 44.212418,88.706520 45.805836,88.895378 
	C47.527218,88.854286 49.248604,88.813202 51.829639,88.916656 
	C54.903748,88.430862 57.977856,87.945076 61.432594,87.597878 
	C61.710861,87.477959 61.860786,87.266830 61.951607,86.977608 
z"/>
<path fill="#036FC5" opacity="1.000000" stroke="none" 
	d="
M17.892653,75.050117 
	C7.992875,63.125137 6.709305,49.604259 10.944949,35.295650 
	C15.314091,20.536068 31.738571,8.470832 46.947399,8.837517 
	C56.415642,9.065797 65.243652,10.112681 72.769196,16.999252 
	C72.062332,21.497728 71.770424,25.458685 70.529129,29.095615 
	C69.872017,31.020918 67.564011,32.382767 65.773224,33.844574 
	C65.047577,33.456451 64.550026,33.222740 63.873199,32.831482 
	C63.464241,32.453136 63.220886,32.248581 62.858025,31.771673 
	C62.171009,30.653351 61.589848,29.823627 60.877560,28.735767 
	C60.165134,27.985565 59.583836,27.493498 58.807598,26.732277 
	C57.424831,25.927671 56.236996,25.392221 54.833855,24.595036 
	C53.767178,24.053581 52.915810,23.773859 51.742371,23.371437 
	C50.275719,23.222998 49.131138,23.197256 47.608757,23.150167 
	C40.091343,23.940792 36.044224,28.524776 32.994270,34.958534 
	C28.872587,42.128727 32.227280,47.594601 36.227051,53.138527 
	C36.604450,53.530834 36.828392,53.746670 37.231216,54.216793 
	C38.308655,55.737469 39.214752,56.996029 39.426586,57.290260 
	C32.955181,63.026829 27.004803,68.352165 20.975790,73.586945 
	C20.148378,74.305359 18.930014,74.573509 17.892653,75.050117 
z"/>
<path fill="#036BBE" opacity="1.000000" stroke="none" 
	d="
M66.001305,33.998989 
	C67.564011,32.382767 69.872017,31.020918 70.529129,29.095615 
	C71.770424,25.458685 72.062332,21.497728 72.926979,17.310675 
	C79.633904,19.929873 82.543930,26.081062 85.800232,31.810472 
	C87.033699,33.980728 87.304008,36.698391 87.799911,39.790764 
	C83.381279,47.284145 79.288422,54.226734 74.883698,60.965481 
	C73.908867,62.456871 71.969376,63.735233 70.228737,64.207588 
	C67.809875,64.863998 58.299690,58.617218 57.387043,55.995132 
	C62.963074,54.152260 65.318802,50.207283 65.874298,44.686665 
	C65.396469,43.800514 65.046310,43.224449 64.724686,42.518265 
	C64.753227,42.388145 64.904144,42.168587 65.067673,41.905312 
	C65.489388,41.086430 65.747581,40.530827 65.862076,39.805779 
	C65.517822,39.417572 65.304428,39.212158 64.994247,38.743992 
	C64.852623,38.284367 64.794930,38.100842 64.816811,37.937424 
	C64.896393,37.957527 65.049202,38.017513 65.274475,37.863480 
	C65.666939,36.472626 65.834122,35.235809 66.001305,33.998989 
z"/>
<path fill="#0465B4" opacity="1.000000" stroke="none" 
	d="
M57.039772,56.066914 
	C58.299690,58.617218 67.809875,64.863998 70.228737,64.207588 
	C71.969376,63.735233 73.908867,62.456871 74.883698,60.965481 
	C79.288422,54.226734 83.381279,47.284145 87.848297,40.185394 
	C90.960342,53.697239 88.454948,66.086189 78.807487,76.653969 
	C77.808121,77.748672 76.694229,78.738838 75.248993,79.468506 
	C73.952057,77.399261 73.039597,75.639008 71.938553,73.615448 
	C70.511284,71.884987 69.272606,70.417824 67.852722,68.687271 
	C66.442078,67.658348 65.212624,66.892807 63.699070,65.958122 
	C61.939716,64.896461 60.464470,64.003952 58.652840,62.938202 
	C56.596977,62.354546 54.877495,61.944130 52.820572,61.414139 
	C50.388470,61.284107 48.293819,61.273651 45.759632,61.273987 
	C44.025997,61.523975 42.716450,61.700085 41.440266,62.012486 
	C32.294746,64.251228 23.708303,73.103043 23.363115,80.612457 
	C21.638313,78.967613 19.913511,77.322777 18.040682,75.364029 
	C18.930014,74.573509 20.148378,74.305359 20.975790,73.586945 
	C27.004803,68.352165 32.955181,63.026829 39.426586,57.290260 
	C39.214752,56.996029 38.308655,55.737469 37.586121,54.280334 
	C43.965672,56.950634 50.078640,60.625389 57.039772,56.066914 
z"/>
<path fill="#68D0FA" opacity="1.000000" stroke="none" 
	d="
M23.603355,80.713387 
	C23.708303,73.103043 32.294746,64.251228 41.440266,62.012486 
	C42.716450,61.700085 44.025997,61.523975 45.683258,61.679092 
	C44.435440,64.476883 43.007984,67.031715 41.175980,69.252884 
	C37.137501,74.149231 32.895012,78.877312 28.735773,83.674065 
	C27.105047,82.720810 25.474319,81.767563 23.603355,80.713387 
z"/>
<path fill="#52C1F2" opacity="1.000000" stroke="none" 
	d="
M53.158020,61.533710 
	C54.877495,61.944130 56.596977,62.354546 58.599556,63.282921 
	C57.852615,65.435486 57.059258,67.296448 55.750710,68.664719 
	C50.643314,74.005180 45.416405,79.234314 40.127892,84.396210 
	C39.008614,85.488686 37.442451,86.123306 36.082188,86.968887 
	C35.892136,86.930389 35.702087,86.891891 35.095539,86.614090 
	C34.469563,86.213501 34.240150,86.088943 33.990807,86.001091 
	C33.118305,85.840080 32.245800,85.679070 31.521574,85.067604 
	C38.324379,78.294876 45.033108,72.027649 51.573017,65.588951 
	C52.517094,64.659477 52.649822,62.905914 53.158020,61.533710 
z"/>
<path fill="#47BBEF" opacity="1.000000" stroke="none" 
	d="
M36.259781,87.286819 
	C37.442451,86.123306 39.008614,85.488686 40.127892,84.396210 
	C45.416405,79.234314 50.643314,74.005180 55.750710,68.664719 
	C57.059258,67.296448 57.852615,65.435486 58.935944,63.456154 
	C60.464470,64.003952 61.939716,64.896461 63.586525,66.270142 
	C58.807625,72.031403 53.778950,77.241440 48.950989,82.631271 
	C47.355988,84.411888 46.278778,86.656319 44.964821,88.688683 
	C44.212418,88.706520 43.460011,88.724358 42.130173,88.498138 
	C41.053139,88.162735 40.553535,88.071381 40.053932,87.980026 
	C38.848415,87.854927 37.642895,87.729843 36.259781,87.286819 
z"/>
<path fill="#5ECAF7" opacity="1.000000" stroke="none" 
	d="
M52.820572,61.414139 
	C52.649822,62.905914 52.517094,64.659477 51.573017,65.588951 
	C45.033108,72.027649 38.324379,78.294876 31.373425,84.767845 
	C30.873154,84.883224 30.669310,84.847900 30.063118,84.548950 
	C29.472801,84.101357 29.257507,83.958557 29.014887,83.856918 
	C29.014887,83.856918 28.788521,83.899384 28.762146,83.786728 
	C32.895012,78.877312 37.137501,74.149231 41.175980,69.252884 
	C43.007984,67.031715 44.435440,64.476883 46.122787,61.668304 
	C48.293819,61.273651 50.388470,61.284107 52.820572,61.414139 
z"/>
<path fill="#3DB6ED" opacity="1.000000" stroke="none" 
	d="
M45.385330,88.792030 
	C46.278778,86.656319 47.355988,84.411888 48.950989,82.631271 
	C53.778950,77.241440 58.807625,72.031403 63.870632,66.439293 
	C65.212624,66.892807 66.442078,67.658348 67.739403,69.012878 
	C65.569946,72.205460 63.357815,74.831230 61.089336,77.407379 
	C57.737236,81.214127 54.345081,84.985611 50.969986,88.772110 
	C49.248604,88.813202 47.527218,88.854286 45.385330,88.792030 
z"/>
<path fill="#31AAE5" opacity="1.000000" stroke="none" 
	d="
M51.399811,88.844376 
	C54.345081,84.985611 57.737236,81.214127 61.089336,77.407379 
	C63.357815,74.831230 65.569946,72.205460 67.920609,69.276276 
	C69.272606,70.417824 70.511284,71.884987 71.737610,73.897263 
	C68.471542,78.597672 65.217819,82.752968 61.964104,86.908257 
	C61.964100,86.908257 61.951607,86.977608 61.757896,87.015465 
	C61.354698,87.139755 61.183956,87.275070 61.051964,87.459282 
	C57.977856,87.945076 54.903748,88.430862 51.399811,88.844376 
z"/>
<path fill="#239EDD" opacity="1.000000" stroke="none" 
	d="
M62.340908,86.890152 
	C65.217819,82.752968 68.471542,78.597672 71.926193,74.160568 
	C73.039597,75.639008 73.952057,77.399261 74.913315,79.496666 
	C70.880653,82.179893 66.799187,84.525970 62.340908,86.890152 
z"/>
<path fill="#31AAE5" opacity="1.000000" stroke="none" 
	d="
M40.212666,88.211029 
	C40.553535,88.071381 41.053139,88.162735 41.765015,88.400208 
	C41.441990,88.511566 40.906693,88.476799 40.212666,88.211029 
z"/>
<path fill="#52C1F2" opacity="1.000000" stroke="none" 
	d="
M29.071918,84.084618 
	C29.257507,83.958557 29.472801,84.101357 29.773327,84.437943 
	C29.885887,84.590584 29.431723,84.659874 29.431723,84.659874 
	C29.431723,84.659874 29.128948,84.312317 29.071918,84.084618 
z"/>
<path fill="#47BBEF" opacity="1.000000" stroke="none" 
	d="
M34.078529,86.217690 
	C34.240150,86.088943 34.469563,86.213501 34.825516,86.505966 
	C34.971989,86.637154 34.516727,86.743774 34.516727,86.743774 
	C34.516727,86.743774 34.166248,86.434288 34.078529,86.217690 
z"/>
<path fill="#239EDD" opacity="1.000000" stroke="none" 
	d="
M61.242279,87.528580 
	C61.183956,87.275070 61.354698,87.139755 61.723278,87.008911 
	C61.860786,87.266830 61.710861,87.477959 61.242279,87.528580 
z"/>
<path fill="#045DA3" opacity="1.000000" stroke="none" 
	d="
M57.387043,55.995132 
	C50.078640,60.625389 43.965672,56.950634 37.414783,54.018219 
	C36.828392,53.746670 36.604450,53.530834 36.352009,52.866463 
	C36.568909,51.879978 36.821850,51.334198 37.395298,50.838219 
	C38.146729,50.924866 38.577656,50.961712 39.185989,51.252918 
	C40.258976,51.996021 41.154545,52.484764 42.317345,53.194683 
	C44.380951,53.861786 46.177326,54.307713 48.340935,54.805962 
	C50.139736,54.580238 51.571312,54.302200 53.364471,54.000961 
	C59.165794,52.708817 61.801788,48.471184 64.468727,44.160233 
	C65.124359,44.521404 65.563156,44.759075 66.001961,44.996750 
	C65.318802,50.207283 62.963074,54.152260 57.387043,55.995132 
z"/>
<path fill="#41B8EE" opacity="1.000000" stroke="none" 
	d="
M42.050117,52.973507 
	C41.154545,52.484764 40.258976,51.996021 39.456657,51.061291 
	C46.702839,43.408173 53.855762,36.201038 61.008686,28.993904 
	C61.589848,29.823627 62.171009,30.653351 62.668434,32.037766 
	C55.739841,39.386143 48.894981,46.179825 42.050117,52.973507 
z"/>
<path fill="#6AD2FB" opacity="1.000000" stroke="none" 
	d="
M33.227551,34.609573 
	C36.044224,28.524776 40.091343,23.940792 47.586559,23.511818 
	C45.052746,30.719879 40.633194,35.942768 33.153408,37.574219 
	C33.159023,36.307907 33.193287,35.458740 33.227551,34.609573 
z"/>
<path fill="#37B2EB" opacity="1.000000" stroke="none" 
	d="
M42.317345,53.194683 
	C48.894981,46.179825 55.739841,39.386143 62.774292,32.326366 
	C63.220886,32.248581 63.464241,32.453136 63.895538,33.198631 
	C64.414497,35.154724 64.731850,36.586117 65.049202,38.017513 
	C65.049202,38.017513 64.896393,37.957527 64.484123,38.009605 
	C58.705803,43.625668 53.339756,49.189651 47.973705,54.753639 
	C46.177326,54.307713 44.380951,53.861786 42.317345,53.194683 
z"/>
<path fill="#52C3F4" opacity="1.000000" stroke="none" 
	d="
M55.049164,24.856770 
	C56.236996,25.392221 57.424831,25.927671 58.615955,27.003620 
	C51.412685,34.696255 44.206123,41.848400 36.756714,48.915932 
	C36.355423,48.765827 36.196983,48.700336 35.881351,48.391594 
	C35.433422,47.451191 35.142685,46.754044 35.162979,45.901093 
	C41.353691,40.264278 47.301361,34.852917 53.052189,29.239876 
	C54.123394,28.194342 54.403797,26.338596 55.049164,24.856770 
z"/>
<path fill="#4ABEF1" opacity="1.000000" stroke="none" 
	d="
M36.999561,49.000542 
	C44.206123,41.848400 51.412685,34.696255 58.810890,27.272774 
	C59.583836,27.493498 60.165134,27.985565 60.877560,28.735769 
	C53.855762,36.201038 46.702839,43.408173 39.279243,50.806931 
	C38.577656,50.961712 38.146729,50.924866 37.373688,50.632698 
	C37.031567,50.377380 36.906574,49.983040 36.947243,49.739067 
	C36.987915,49.495090 36.999561,49.000542 36.999561,49.000542 
z"/>
<path fill="#5AC8F6" opacity="1.000000" stroke="none" 
	d="
M54.833855,24.595036 
	C54.403797,26.338596 54.123394,28.194342 53.052189,29.239876 
	C47.301361,34.852917 41.353691,40.264278 34.902924,45.663307 
	C34.065887,44.440971 33.799923,43.300621 33.915150,42.090733 
	C39.178173,37.862988 44.205376,33.858627 48.860283,29.460253 
	C50.417309,27.989037 51.023579,25.511614 52.064445,23.494137 
	C52.915810,23.773859 53.767178,24.053581 54.833855,24.595036 
z"/>
<path fill="#62CDF9" opacity="1.000000" stroke="none" 
	d="
M51.742371,23.371437 
	C51.023579,25.511614 50.417309,27.989037 48.860283,29.460253 
	C44.205376,33.858627 39.178173,37.862988 33.781239,41.763123 
	C33.238113,40.333817 33.210083,39.162594 33.182053,37.991367 
	C40.633194,35.942768 45.052746,30.719879 47.964355,23.533169 
	C49.131138,23.197256 50.275719,23.222998 51.742371,23.371437 
z"/>
<path fill="#0465B4" opacity="1.000000" stroke="none" 
	d="
M33.153408,37.574219 
	C33.210083,39.162594 33.238113,40.333817 33.400051,41.832657 
	C33.799923,43.300621 34.065887,44.440971 34.591900,45.819107 
	C35.142685,46.754044 35.433422,47.451191 36.024628,48.617825 
	C36.518925,49.385883 36.712749,49.684464 36.906574,49.983040 
	C36.906574,49.983040 37.031567,50.377380 37.053177,50.582901 
	C36.821850,51.334198 36.568909,51.879978 36.191010,52.697823 
	C32.227280,47.594601 28.872587,42.128727 32.994270,34.958534 
	C33.193287,35.458740 33.159023,36.307907 33.153408,37.574219 
z"/>
<path fill="#0465B4" opacity="1.000000" stroke="none" 
	d="
M65.274475,37.863480 
	C64.731850,36.586117 64.414497,35.154724 64.074806,33.356178 
	C64.550026,33.222740 65.047577,33.456451 65.773224,33.844574 
	C65.834122,35.235809 65.666939,36.472626 65.274475,37.863480 
z"/>
<path fill="#2EABE8" opacity="1.000000" stroke="none" 
	d="
M48.340935,54.805958 
	C53.339756,49.189651 58.705803,43.625668 64.404541,37.989502 
	C64.794930,38.100842 64.852623,38.284367 64.989059,38.996708 
	C65.089890,39.692516 65.112000,39.859509 65.076172,40.380104 
	C64.980209,41.211998 64.942177,41.690292 64.904144,42.168587 
	C64.904144,42.168587 64.753227,42.388145 64.552780,42.607201 
	C64.352325,42.826252 64.010201,43.005619 63.687328,43.114510 
	C59.910599,46.823650 56.456741,50.423904 53.002884,54.024162 
	C51.571312,54.302200 50.139736,54.580238 48.340935,54.805958 
z"/>
<path fill="#0465B4" opacity="1.000000" stroke="none" 
	d="
M64.010201,43.005619 
	C64.010201,43.005619 64.352325,42.826252 64.524239,42.737316 
	C65.046310,43.224449 65.396469,43.800514 65.874298,44.686665 
	C65.563156,44.759075 65.124359,44.521404 64.408157,43.902496 
	C64.090576,43.349373 64.050385,43.177494 64.010201,43.005619 
z"/>
<path fill="#045DA3" opacity="1.000000" stroke="none" 
	d="
M65.067673,41.905312 
	C64.942177,41.690292 64.980209,41.211998 65.294022,40.367512 
	C65.569794,40.001320 66.005775,39.975224 66.005775,39.975224 
	C65.747581,40.530827 65.489388,41.086430 65.067673,41.905312 
z"/>
<path fill="#0465B4" opacity="1.000000" stroke="none" 
	d="
M65.862076,39.805779 
	C66.005775,39.975224 65.569794,40.001320 65.351944,40.013912 
	C65.112000,39.859509 65.089890,39.692516 65.072983,39.272808 
	C65.304428,39.212158 65.517822,39.417572 65.862076,39.805779 
z"/>
<path fill="#25A4E3" opacity="1.000000" stroke="none" 
	d="
M63.687328,43.114510 
	C64.050385,43.177494 64.090576,43.349373 64.191330,43.778992 
	C61.801788,48.471184 59.165794,52.708817 53.364468,54.000957 
	C56.456741,50.423904 59.910599,46.823650 63.687328,43.114510 
z"/>
<path fill="#045DA3" opacity="1.000000" stroke="none" 
	d="
M36.947243,49.739067 
	C36.712749,49.684464 36.518925,49.385883 36.181824,48.861076 
	C36.196983,48.700336 36.355423,48.765827 36.756714,48.915932 
	C36.999561,49.000542 36.987915,49.495090 36.947243,49.739067 
z"/>
</svg>